<svg xmlns="http://www.w3.org/2000/svg" viewBox="0 0 320 180" role="img" aria-label="Neon rooftop arena">
  <defs><linearGradient id="sky" x1="0" y1="0" x2="0" y2="1"><stop offset="0" stop-color="#0a0a18"/><stop offset="1" stop-color="#2a1140"/></linearGradient></defs>
  <rect width="320" height="180" fill="url(#sky)"/>
  <g fill="#120c22"><rect x="10" y="60" width="40" height="120"/><rect x="60" y="40" width="34" height="140"/><rect x="240" y="50" width="38" height="130"/><rect x="284" y="74" width="30" height="106"/></g>
  <g fill="#39d0ff" opacity=".8"><rect x="18" y="70" width="6" height="6"/><rect x="30" y="86" width="6" height="6"/><rect x="68" y="56" width="6" height="6"/><rect x="80" y="80" width="6" height="6"/><rect x="248" y="64" width="6" height="6"/><rect x="262" y="92" width="6" height="6"/><rect x="292" y="86" width="6" height="6"/></g>
  <ellipse cx="160" cy="150" rx="96" ry="26" fill="#1a1030" stroke="#ff2e88" stroke-width="2"/>
  <ellipse cx="160" cy="150" rx="70" ry="17" fill="none" stroke="#39d0ff" stroke-width="2" opacity=".8"/>
  <line x1="160" y1="124" x2="160" y2="150" stroke="#ff2e88" stroke-width="2" opacity=".5"/>
</svg>
